<?xml version="1.0" standalone="no"?>
<!DOCTYPE svg PUBLIC "-//W3C//DTD SVG 20010904//EN"
 "http://www.w3.org/TR/2001/REC-SVG-20010904/DTD/svg10.dtd">
<svg version="1.0" xmlns="http://www.w3.org/2000/svg"
 width="219.000000pt" height="230.000000pt" viewBox="0 0 219.000000 230.000000"
 preserveAspectRatio="xMidYMid meet">
<metadata>
Created by potrace 1.16, written by Peter Selinger 2001-2019
</metadata>
<g transform="translate(0.000000,230.000000) scale(0.100000,-0.100000)"
fill="#000000" stroke="none">
<path d="M972 2189 c-174 -22 -349 -94 -491 -199 -398 -297 -518 -864 -275
-1309 251 -461 823 -651 1310 -436 147 65 328 218 417 353 131 197 184 390
175 624 -7 152 -33 258 -97 393 -156 327 -447 533 -811 575 -96 11 -138 11
-228 -1z m308 -124 c323 -64 585 -309 687 -642 24 -80 27 -103 27 -248 0 -146
-3 -168 -28 -250 -101 -332 -363 -573 -695 -640 -114 -23 -314 -16 -421 15
-306 88 -546 333 -632 645 -18 67 -22 106 -22 235 1 139 3 164 27 243 71 232
214 417 414 536 191 113 419 151 643 106z"/>
<path d="M1000 1618 c-29 -16 -55 -41 -73 -70 -55 -89 -45 -180 27 -252 166
-166 427 31 319 241 -48 93 -178 131 -273 81z"/>
<path d="M1014 1156 c-155 -38 -274 -175 -274 -314 0 -59 2 -66 34 -98 l34
-34 287 0 287 0 34 34 c32 32 34 38 34 97 -1 201 -230 366 -436 315z"/>
</g>
</svg>
